# xmcd CD database file
#
# Track frame offsets:
#	150
#	23400
#	30825
#
# Disc length: 718 seconds
#
# Revision: 1
# Processed by: cddbd v1.5.1PL0 Copyright (c) Steve Scherf et al.
# Submitted via: freeDBTagger 0.5
#
DISCID=0e02cc03
DTITLE=角松敏生 - Unforgettable
DYEAR=1998
DGENRE=rock
TTITLE0=Unforgettable
TTITLE1=Unforgettable (CM Edit)
TTITLE2=Unforgettable (Instrumental)
EXTD=
EXTT0=
EXTT1=
EXTT2=
PLAYORDER=
